<svg width="30" height="30" viewBox="0 0 30 30" fill="none" xmlns="http://www.w3.org/2000/svg">
<path d="M8.16164 10.5562C8.16164 10.5562 2.9533 11.9104 4.5158 18.7854C6.0783 25.6604 11.1825 24.4104 11.1825 24.4104L13.1616 23.8896L17.12 23.7854C17.12 23.7854 20.87 24.9313 23.0575 23.6813C25.245 22.4313 26.2866 18.5771 26.2866 18.5771V15.6604L25.245 13.3688L23.4741 11.5979L22.4325 10.7646C22.4325 10.7646 25.5575 7.84792 24.5158 5.97292C23.4741 4.09792 22.745 3.57708 19.7241 6.07708L19.2033 6.49375C19.2033 6.49375 15.1408 4.51458 11.0783 6.38958C11.0783 6.38958 8.99497 3.05625 6.18247 5.13958L5.97414 7.22292C5.97414 7.22292 6.7033 10.5562 8.16164 10.5562Z" fill="#A15C64"/>
<path d="M4.13382 16.98C4.13382 16.98 8.12673 21.2854 13.3701 17.8829C13.3701 17.8829 13.8559 19.7233 14.9671 19.4454C16.0784 19.1675 17.0159 18.0217 17.0159 18.0217C17.0159 18.0217 23.3005 20.3479 26.5642 16.9454C26.5642 16.9454 26.7901 20.8342 23.1097 23.8896C23.1097 23.8896 19.7242 25.105 17.1201 23.7854L13.0226 23.8896C13.0226 23.8896 9.86298 25.0008 7.67548 23.8204C5.48798 22.64 3.64757 18.4733 4.13382 16.98V16.98Z" fill="white"/>
<path d="M13.3699 17.8829L16.8595 17.8483C16.8595 17.8483 16.5728 19.4887 15.2707 19.4887C13.9686 19.4887 13.3699 17.8829 13.3699 17.8829Z" fill="white"/>
<path d="M13.4905 18.2317C13.4905 18.2317 13.803 19.3084 15.053 19.4471C16.303 19.5859 16.7196 18.2317 16.7196 18.2317" stroke="black" stroke-width="0.5" stroke-miterlimit="10" stroke-linecap="round" stroke-linejoin="round"/>
<path d="M15.053 19.4471L15.1051 21.2525C15.7838 21.6883 16.1767 21.8817 17.2055 21.6692" stroke="black" stroke-width="0.5" stroke-miterlimit="10" stroke-linecap="round" stroke-linejoin="round"/>
<path d="M13.0737 21.6692C13.8896 21.8083 14.2891 21.6692 15.105 21.2525" stroke="black" stroke-width="0.5" stroke-miterlimit="10" stroke-linecap="round" stroke-linejoin="round"/>
<path d="M17.4509 23.6138C19.6997 24.77 21.4863 24.3313 22.7643 23.5125" stroke="black" stroke-width="0.5" stroke-miterlimit="10" stroke-linecap="round" stroke-linejoin="round"/>
<path d="M4.59584 18.5325C3.01876 12.8975 8.35168 10.7317 8.35168 10.7317C7.10168 10.315 4.87918 6.73875 6.71959 5.07208C8.56001 3.40541 11.0946 6.46083 11.0946 6.46083C11.0946 6.46083 15.1963 4.725 19.43 6.46083C19.43 6.46083 21.965 3.40541 23.805 5.07208C25.645 6.73875 23.4233 10.315 22.1733 10.7317C22.1733 10.7317 27.4154 12.8537 25.9675 18.3892" stroke="black" stroke-width="0.5" stroke-miterlimit="10" stroke-linecap="round" stroke-linejoin="round"/>
<path d="M8.00879 23.6629C9.26629 24.3804 10.9671 24.6967 13.0738 23.6138" stroke="black" stroke-width="0.5" stroke-miterlimit="10" stroke-linecap="round" stroke-linejoin="round"/>
<path d="M11.0946 18.1275C11.0946 18.1275 4.01131 19.2388 2.86548 23.0233" stroke="black" stroke-width="0.5" stroke-miterlimit="10" stroke-linecap="round" stroke-linejoin="round"/>
<path d="M11.4071 19.6779C11.4071 19.6779 6.30215 20.6017 5.36548 25.2113" stroke="black" stroke-width="0.5" stroke-miterlimit="10" stroke-linecap="round" stroke-linejoin="round"/>
<path d="M19.4299 18.1275C19.4299 18.1275 26.5133 19.2388 27.6591 23.0233" stroke="black" stroke-width="0.5" stroke-miterlimit="10" stroke-linecap="round" stroke-linejoin="round"/>
<path d="M19.1174 19.6779C19.1174 19.6779 24.0103 21.2529 25.1591 25.2113" stroke="black" stroke-width="0.5" stroke-miterlimit="10" stroke-linecap="round" stroke-linejoin="round"/>
<path fill-rule="evenodd" clip-rule="evenodd" d="M11.6667 12.5C12.5913 11.4863 14.903 12.7189 11.6667 15C8.43033 12.7191 10.7421 11.4863 11.6667 12.5Z" fill="black"/>
<path fill-rule="evenodd" clip-rule="evenodd" d="M18.3334 12.5C19.258 11.4862 21.5698 12.7189 18.3334 15C15.0971 12.7191 17.4088 11.4862 18.3334 12.5Z" fill="black"/>
<g style="mix-blend-mode:hard-light">
<path d="M23.3333 16.6667C23.3333 17.5871 22.5871 18.3333 21.6667 18.3333C20.7462 18.3333 20 17.5871 20 16.6667C20 15.7462 20.7462 15 21.6667 15C22.5871 15 23.3333 15.7462 23.3333 16.6667Z" fill="#FFB1B1" fill-opacity="0.44"/>
</g>
<g style="mix-blend-mode:hard-light">
<path d="M10.3333 16.6667C10.3333 17.5871 9.58714 18.3333 8.66667 18.3333C7.74619 18.3333 7 17.5871 7 16.6667C7 15.7462 7.74619 15 8.66667 15C9.58714 15 10.3333 15.7462 10.3333 16.6667Z" fill="#FFB1B1" fill-opacity="0.44"/>
</g>
</svg>
