<svg width="30" height="30" viewBox="0 0 30 30" fill="none" xmlns="http://www.w3.org/2000/svg">
<path d="M8.16164 10.5562C8.16164 10.5562 2.9533 11.9104 4.5158 18.7854C6.0783 25.6604 11.1825 24.4104 11.1825 24.4104L13.1616 23.8896L17.12 23.7854C17.12 23.7854 20.87 24.9313 23.0575 23.6813C25.245 22.4313 26.2866 18.5771 26.2866 18.5771V15.6604L25.245 13.3688L23.4741 11.5979L22.4325 10.7646C22.4325 10.7646 25.5575 7.84792 24.5158 5.97292C23.4741 4.09792 22.745 3.57708 19.7241 6.07708L19.2033 6.49375C19.2033 6.49375 15.1408 4.51458 11.0783 6.38958C11.0783 6.38958 8.99497 3.05625 6.18247 5.13958L5.97414 7.22292C5.97414 7.22292 6.7033 10.5562 8.16164 10.5562Z" fill="#A15C64"/>
<path d="M4.13382 16.98C4.13382 16.98 8.12673 21.2854 13.3701 17.8829C13.3701 17.8829 13.8559 19.7233 14.9671 19.4454C16.0784 19.1675 17.0159 18.0217 17.0159 18.0217C17.0159 18.0217 23.3005 20.3479 26.5642 16.9454C26.5642 16.9454 26.7901 20.8342 23.1097 23.8896C23.1097 23.8896 19.7242 25.105 17.1201 23.7854L13.0226 23.8896C13.0226 23.8896 9.86298 25.0008 7.67548 23.8204C5.48798 22.64 3.64757 18.4733 4.13382 16.98V16.98Z" fill="white"/>
<path d="M13.3699 17.8829L16.8595 17.8483C16.8595 17.8483 16.5728 19.4887 15.2707 19.4887C13.9686 19.4887 13.3699 17.8829 13.3699 17.8829Z" fill="white"/>
<path d="M13.4905 18.2317C13.4905 18.2317 13.803 19.3084 15.053 19.4471C16.303 19.5859 16.7196 18.2317 16.7196 18.2317" stroke="#0E0D0D" stroke-width="0.5" stroke-miterlimit="10" stroke-linecap="round" stroke-linejoin="round"/>
<path d="M15.053 19.4471L15.1051 21.2525C15.7838 21.6883 16.1767 21.8817 17.2055 21.6692" stroke="#0E0D0D" stroke-width="0.5" stroke-miterlimit="10" stroke-linecap="round" stroke-linejoin="round"/>
<path d="M13.0737 21.6692C13.8896 21.8083 14.2891 21.6692 15.105 21.2525" stroke="#0E0D0D" stroke-width="0.5" stroke-miterlimit="10" stroke-linecap="round" stroke-linejoin="round"/>
<path d="M17.4509 23.6138C19.6997 24.77 21.4863 24.3313 22.7643 23.5125" stroke="#0E0D0D" stroke-width="0.5" stroke-miterlimit="10" stroke-linecap="round" stroke-linejoin="round"/>
<path d="M4.59584 18.5325C3.01876 12.8975 8.35168 10.7317 8.35168 10.7317C7.10168 10.315 4.87918 6.73875 6.71959 5.07208C8.56001 3.40541 11.0946 6.46083 11.0946 6.46083C11.0946 6.46083 15.1963 4.725 19.43 6.46083C19.43 6.46083 21.965 3.40541 23.805 5.07208C25.645 6.73875 23.4233 10.315 22.1733 10.7317C22.1733 10.7317 27.4154 12.8537 25.9675 18.3892" stroke="#0E0D0D" stroke-width="0.5" stroke-miterlimit="10" stroke-linecap="round" stroke-linejoin="round"/>
<path d="M8.00879 23.6629C9.26629 24.3804 10.9671 24.6967 13.0738 23.6138" stroke="#0E0D0D" stroke-width="0.5" stroke-miterlimit="10" stroke-linecap="round" stroke-linejoin="round"/>
<path d="M11.0946 18.1275C11.0946 18.1275 4.01131 19.2388 2.86548 23.0233" stroke="#0E0D0D" stroke-width="0.5" stroke-miterlimit="10" stroke-linecap="round" stroke-linejoin="round"/>
<path d="M11.4071 19.6779C11.4071 19.6779 6.30215 20.6017 5.36548 25.2113" stroke="#0E0D0D" stroke-width="0.5" stroke-miterlimit="10" stroke-linecap="round" stroke-linejoin="round"/>
<path d="M19.4299 18.1275C19.4299 18.1275 26.5133 19.2388 27.6591 23.0233" stroke="#0E0D0D" stroke-width="0.5" stroke-miterlimit="10" stroke-linecap="round" stroke-linejoin="round"/>
<path d="M19.1174 19.6779C19.1174 19.6779 24.0103 21.2529 25.1591 25.2113" stroke="#0E0D0D" stroke-width="0.5" stroke-miterlimit="10" stroke-linecap="round" stroke-linejoin="round"/>
<path d="M10.5334 11.0848L12 12.5514L13.4667 11.0892C13.4955 11.0598 13.5302 11.0368 13.5684 11.0215C13.6067 11.0062 13.6477 10.999 13.6889 11.0003C13.7697 11.0056 13.8458 11.04 13.903 11.0973C13.9603 11.1545 13.9948 11.2306 14 11.3114C14.0004 11.3512 13.9927 11.3906 13.9774 11.4272C13.9622 11.4639 13.9396 11.4971 13.9111 11.5248L12.44 13.0003L13.9111 14.4758C13.9689 14.5318 14.0009 14.6091 14 14.6891C13.9948 14.7699 13.9603 14.846 13.903 14.9033C13.8458 14.9605 13.7697 14.995 13.6889 15.0002C13.6477 15.0016 13.6067 14.9944 13.5684 14.9791C13.5302 14.9638 13.4955 14.9407 13.4667 14.9113L12 13.4492L10.5379 14.9113C10.509 14.9407 10.4743 14.9638 10.4361 14.9791C10.3978 14.9944 10.3568 15.0016 10.3156 15.0002C10.2333 14.9959 10.1555 14.9613 10.0973 14.903C10.039 14.8448 10.0044 14.767 10.0001 14.6847C9.99969 14.645 10.0074 14.6056 10.0226 14.5689C10.0379 14.5322 10.0605 14.499 10.089 14.4714L11.56 13.0003L10.0845 11.5248C10.0568 11.4967 10.0351 11.4634 10.0206 11.4267C10.0061 11.39 9.99911 11.3508 10.0001 11.3114C10.0053 11.2306 10.0398 11.1545 10.097 11.0973C10.1543 11.04 10.2304 11.0056 10.3112 11.0003C10.352 10.9984 10.3929 11.0049 10.4311 11.0194C10.4693 11.0339 10.5042 11.0562 10.5334 11.0848V11.0848Z" fill="black"/>
<path d="M16.5334 11.0848L18 12.5514L19.4667 11.0892C19.4955 11.0598 19.5302 11.0368 19.5684 11.0215C19.6067 11.0062 19.6477 10.999 19.6889 11.0003C19.7697 11.0056 19.8458 11.04 19.903 11.0973C19.9603 11.1545 19.9948 11.2306 20 11.3114C20.0004 11.3512 19.9927 11.3906 19.9774 11.4272C19.9622 11.4639 19.9396 11.4971 19.9111 11.5248L18.44 13.0003L19.9111 14.4758C19.9689 14.5318 20.0009 14.6091 20 14.6891C19.9948 14.7699 19.9603 14.846 19.903 14.9033C19.8458 14.9605 19.7697 14.995 19.6889 15.0002C19.6477 15.0016 19.6067 14.9944 19.5684 14.9791C19.5302 14.9638 19.4955 14.9407 19.4667 14.9113L18 13.4492L16.5379 14.9113C16.509 14.9407 16.4743 14.9638 16.4361 14.9791C16.3978 14.9944 16.3568 15.0016 16.3156 15.0002C16.2333 14.9959 16.1555 14.9613 16.0973 14.903C16.039 14.8448 16.0044 14.767 16.0001 14.6847C15.9997 14.645 16.0074 14.6056 16.0226 14.5689C16.0379 14.5322 16.0605 14.499 16.089 14.4714L17.56 13.0003L16.0845 11.5248C16.0568 11.4967 16.0351 11.4634 16.0206 11.4267C16.0061 11.39 15.9991 11.3508 16.0001 11.3114C16.0053 11.2306 16.0398 11.1545 16.097 11.0973C16.1543 11.04 16.2304 11.0056 16.3112 11.0003C16.352 10.9984 16.3929 11.0049 16.4311 11.0194C16.4693 11.0339 16.5042 11.0562 16.5334 11.0848V11.0848Z" fill="black"/>
</svg>
