<svg width="30" height="30" viewBox="0 0 30 30" fill="none" xmlns="http://www.w3.org/2000/svg">
<path d="M8.16164 10.5562C8.16164 10.5562 2.9533 11.9104 4.5158 18.7854C6.0783 25.6604 11.1825 24.4104 11.1825 24.4104L13.1616 23.8896L17.12 23.7854C17.12 23.7854 20.87 24.9313 23.0575 23.6813C25.245 22.4313 26.2866 18.5771 26.2866 18.5771V15.6604L25.245 13.3688L23.4741 11.5979L22.4325 10.7646C22.4325 10.7646 25.5575 7.84792 24.5158 5.97292C23.4741 4.09792 22.745 3.57708 19.7241 6.07708L19.2033 6.49375C19.2033 6.49375 15.1408 4.51458 11.0783 6.38958C11.0783 6.38958 8.99497 3.05625 6.18247 5.13958L5.97414 7.22292C5.97414 7.22292 6.7033 10.5562 8.16164 10.5562Z" fill="#A15C64"/>
<path d="M4.13369 16.98C4.13369 16.98 8.12661 21.2854 13.3699 17.8829C13.3699 17.8829 13.8558 19.7233 14.967 19.4454C16.0783 19.1675 17.0158 18.0217 17.0158 18.0217C17.0158 18.0217 23.3004 20.3479 26.5641 16.9454C26.5641 16.9454 26.7899 20.8342 23.1095 23.8896C23.1095 23.8896 19.7241 25.105 17.1199 23.7854L13.0224 23.8896C13.0224 23.8896 9.86286 25.0008 7.67536 23.8204C5.48786 22.64 3.64744 18.4733 4.13369 16.98V16.98Z" fill="white"/>
<path d="M13.37 17.8829L16.8596 17.8483C16.8596 17.8483 16.5729 19.4887 15.2708 19.4887C13.9687 19.4887 13.37 17.8829 13.37 17.8829Z" fill="white"/>
<path d="M11.5891 14.6192C12.2795 14.6192 12.8391 14.0595 12.8391 13.3692C12.8391 12.6788 12.2795 12.1192 11.5891 12.1192C10.8988 12.1192 10.3391 12.6788 10.3391 13.3692C10.3391 14.0595 10.8988 14.6192 11.5891 14.6192Z" fill="black"/>
<path d="M18.5162 14.6192C19.2066 14.6192 19.7662 14.0595 19.7662 13.3692C19.7662 12.6788 19.2066 12.1192 18.5162 12.1192C17.8259 12.1192 17.2662 12.6788 17.2662 13.3692C17.2662 14.0595 17.8259 14.6192 18.5162 14.6192Z" fill="black"/>
<path d="M13.4904 18.2317C13.4904 18.2317 13.8029 19.3084 15.0529 19.4471C16.3029 19.5859 16.7195 18.2317 16.7195 18.2317" stroke="black" stroke-width="0.5" stroke-miterlimit="10" stroke-linecap="round" stroke-linejoin="round"/>
<path d="M15.0529 19.4471L15.1049 21.2525C15.7837 21.6883 16.1766 21.8817 17.2054 21.6692" stroke="black" stroke-width="0.5" stroke-miterlimit="10" stroke-linecap="round" stroke-linejoin="round"/>
<path d="M13.0737 21.6692C13.8896 21.8083 14.2891 21.6692 15.105 21.2525" stroke="black" stroke-width="0.5" stroke-miterlimit="10" stroke-linecap="round" stroke-linejoin="round"/>
<path d="M17.4508 23.6138C19.6996 24.77 21.4862 24.3313 22.7641 23.5125" stroke="black" stroke-width="0.5" stroke-miterlimit="10" stroke-linecap="round" stroke-linejoin="round"/>
<path d="M4.59584 18.5325C3.01876 12.8975 8.35168 10.7317 8.35168 10.7317C7.10168 10.315 4.87918 6.73875 6.71959 5.07208C8.56001 3.40541 11.0946 6.46083 11.0946 6.46083C11.0946 6.46083 15.1963 4.725 19.43 6.46083C19.43 6.46083 21.965 3.40541 23.805 5.07208C25.645 6.73875 23.4233 10.315 22.1733 10.7317C22.1733 10.7317 27.4154 12.8537 25.9675 18.3892" stroke="black" stroke-width="0.5" stroke-miterlimit="10" stroke-linecap="round" stroke-linejoin="round"/>
<path d="M8.00867 23.6629C9.26617 24.3804 10.967 24.6967 13.0737 23.6138" stroke="black" stroke-width="0.5" stroke-miterlimit="10" stroke-linecap="round" stroke-linejoin="round"/>
<path d="M11.0945 18.1275C11.0945 18.1275 4.01119 19.2388 2.86536 23.0233" stroke="black" stroke-width="0.5" stroke-miterlimit="10" stroke-linecap="round" stroke-linejoin="round"/>
<path d="M11.407 19.6779C11.407 19.6779 6.30202 20.6017 5.36536 25.2113" stroke="black" stroke-width="0.5" stroke-miterlimit="10" stroke-linecap="round" stroke-linejoin="round"/>
<path d="M19.4299 18.1275C19.4299 18.1275 26.5133 19.2388 27.6591 23.0233" stroke="black" stroke-width="0.5" stroke-miterlimit="10" stroke-linecap="round" stroke-linejoin="round"/>
<path d="M19.1174 19.6779C19.1174 19.6779 24.0103 21.2529 25.1591 25.2113" stroke="black" stroke-width="0.5" stroke-miterlimit="10" stroke-linecap="round" stroke-linejoin="round"/>
<line x1="10.1768" y1="9.82322" x2="13.5101" y2="13.1566" stroke="black" stroke-width="0.5"/>
<line x1="20.3293" y1="10.1853" x2="16.8344" y2="13.3489" stroke="black" stroke-width="0.5"/>
</svg>
