<svg width="11" height="11" viewBox="0 0 11 11" fill="none" xmlns="http://www.w3.org/2000/svg">
<path d="M2.19996 1.18999L5.49996 4.48999L8.79996 1.19999C8.86493 1.13388 8.94292 1.08197 9.02898 1.04755C9.11505 1.01312 9.20732 0.996928 9.29996 0.999992C9.48175 1.01176 9.65304 1.08928 9.78186 1.2181C9.91067 1.34691 9.9882 1.5182 9.99996 1.69999C10.0009 1.78937 9.9836 1.87801 9.94923 1.96052C9.91485 2.04303 9.86406 2.1177 9.79996 2.17999L6.48996 5.49999L9.79996 8.81999C9.92996 8.94599 10.002 9.11999 9.99996 9.29999C9.9882 9.48178 9.91067 9.65307 9.78186 9.78189C9.65304 9.9107 9.48175 9.98823 9.29996 9.99999C9.20732 10.0031 9.11505 9.98686 9.02898 9.95244C8.94292 9.91801 8.86493 9.8661 8.79996 9.79999L5.49996 6.50999L2.20996 9.79999C2.14499 9.8661 2.067 9.91801 1.98094 9.95244C1.89487 9.98686 1.8026 10.0031 1.70996 9.99999C1.52478 9.99035 1.34974 9.91246 1.21862 9.78134C1.0875 9.65022 1.0096 9.47517 0.999961 9.28999C0.999056 9.20061 1.01632 9.11198 1.0507 9.02946C1.08508 8.94695 1.13586 8.87229 1.19996 8.80999L4.50996 5.49999L1.18996 2.17999C1.12766 2.11686 1.07873 2.04181 1.04608 1.95934C1.01344 1.87687 0.997752 1.78866 0.999961 1.69999C1.01172 1.5182 1.08925 1.34691 1.21806 1.2181C1.34688 1.08928 1.51817 1.01176 1.69996 0.999992C1.79188 0.995626 1.88372 1.01024 1.96974 1.04293C2.05577 1.07562 2.13414 1.12568 2.19996 1.18999V1.18999Z" fill="black"/>
</svg>
